<?xml version="1.0" encoding="utf-8"?>
<!-- Generator: Adobe Illustrator 18.1.1, SVG Export Plug-In . SVG Version: 6.00 Build 0)  -->
<svg version="1.1" id="Layer_1" xmlns="http://www.w3.org/2000/svg" xmlns:xlink="http://www.w3.org/1999/xlink" x="0px" y="0px"
	 viewBox="0 0 936.9 171" style="enable-background:new 0 0 936.9 171;" xml:space="preserve">
<style type="text/css">
	.st0{fill:#E7E7E7;}
	.st1{fill:#4D4D4D;}
	.st2{fill:url(#SVGID_1_);}
	.st3{fill:#F57F20;}
	.st4{fill:#FBB04E;}
	.st5{opacity:0.95;fill:#D2E5F4;}
	.st6{fill:url(#SVGID_2_);}
	.st7{opacity:0.95;fill:url(#SVGID_3_);}
	.st8{opacity:0.1;}
	.st9{fill:#010101;}
	.st10{fill:#1D1E4B;}
	.st11{fill:#AECFEB;}
	.st12{opacity:0.95;fill:#FEDDA4;}
	.st13{fill:url(#SVGID_4_);}
	.st14{opacity:0.95;fill:url(#SVGID_5_);}
	.st15{fill:#393319;}
	.st16{fill:#FBBD54;}
	.st17{opacity:0.95;fill:#D3C0DC;}
	.st18{fill:url(#SVGID_6_);}
	.st19{opacity:0.95;fill:url(#SVGID_7_);}
	.st20{fill:#222041;}
	.st21{opacity:0.95;}
	.st22{fill:#BE9ECB;}
	.st23{opacity:0.95;fill:#D4B9D5;}
	.st24{fill:url(#SVGID_8_);}
	.st25{opacity:0.95;fill:url(#SVGID_9_);}
	.st26{fill:#302239;}
	.st27{opacity:0.95;fill:#B580B8;}
</style>
<g>
	<path class="st0" d="M148.2,142.5h-121c-8.3,0-15-6.7-15-15v-101c0-8.3,6.7-15,15-15h121c8.3,0,15,6.7,15,15v101
		C163.2,135.8,156.4,142.5,148.2,142.5z"/>
	<path class="st1" d="M146.5,132H28.8c-3.9,0-7-3.1-7-7V29c0-3.9,3.1-7,7-7h117.6c3.9,0,7,3.1,7,7v96
		C153.5,128.8,150.3,132,146.5,132z"/>
	<linearGradient id="SVGID_1_" gradientUnits="userSpaceOnUse" x1="12.1624" y1="144.6552" x2="163.1624" y2="144.6552">
		<stop  offset="4.926108e-003" style="stop-color:#B4B4B4"/>
		<stop  offset="0.4975" style="stop-color:#C8C8C8"/>
		<stop  offset="1" style="stop-color:#BBBBBB"/>
	</linearGradient>
	<path class="st2" d="M163.2,126.8v23.4c0,6.8-6.7,12.3-15,12.3h-121c-8.3,0-15-5.5-15-12.3v-23.4c0,6.8,6.7,12.3,15,12.3h121
		C156.4,139.1,163.2,133.6,163.2,126.8z"/>
	<g>
		<g>
			<path class="st3" d="M117.5,91c0,5-1.2,9.3-3.7,12.9c-2.4,3.6-6.1,6.3-10.9,8.2c-4.8,1.8-10.6,2.8-17.5,2.8c-6.5,0-12.2-1-16.8-3
				c-4.7-2-8.1-4.5-10.4-7.5c-2.2-3-3.3-6-3.3-9.1c0-2,0.7-3.7,2.1-5.1c1.4-1.4,3.2-2.1,5.4-2.1c1.9,0,3.4,0.5,4.4,1.4
				c1,0.9,2,2.3,2.9,3.9c1.9,3.3,4.1,5.7,6.7,7.3c2.6,1.6,6.2,2.4,10.7,2.4c3.7,0,6.6-0.8,9-2.4s3.5-3.5,3.5-5.6
				c0-3.2-1.2-5.5-3.6-7c-2.4-1.5-6.4-2.9-12-4.2c-6.3-1.6-11.4-3.2-15.3-4.9c-3.9-1.7-7.1-4-9.5-6.8c-2.4-2.8-3.5-6.3-3.5-10.4
				c0-3.7,1.1-7.1,3.3-10.4c2.2-3.3,5.4-5.8,9.7-7.8c4.3-1.9,9.4-2.9,15.4-2.9c4.7,0,9,0.5,12.7,1.5c3.8,1,6.9,2.3,9.4,3.9
				c2.5,1.6,4.4,3.5,5.7,5.5c1.3,2,2,4,2,5.9c0,2.1-0.7,3.8-2.1,5.1c-1.4,1.3-3.4,2-6,2c-1.9,0-3.5-0.5-4.8-1.6
				c-1.3-1.1-2.8-2.7-4.5-4.8c-1.4-1.8-3-3.2-4.9-4.3c-1.9-1.1-4.4-1.6-7.6-1.6c-3.3,0-6,0.7-8.2,2.1c-2.2,1.4-3.3,3.2-3.3,5.2
				c0,1.9,0.8,3.5,2.4,4.7c1.6,1.2,3.8,2.2,6.5,3c2.7,0.8,6.5,1.8,11.2,2.9c5.7,1.4,10.3,3,13.9,4.9c3.6,1.9,6.3,4.2,8.2,6.8
				C116.6,84.7,117.5,87.6,117.5,91z"/>
		</g>
	</g>
	<g>
		<g>
			<path class="st4" d="M121.2,91c0,5-1.2,9.3-3.7,12.9c-2.4,3.6-6.1,6.3-10.9,8.2c-4.8,1.8-10.6,2.8-17.5,2.8c-6.5,0-12.2-1-16.8-3
				c-4.7-2-8.1-4.5-10.4-7.5c-2.2-3-3.3-6-3.3-9.1c0-2,0.7-3.7,2.1-5.1c1.4-1.4,3.2-2.1,5.4-2.1c1.9,0,3.4,0.5,4.4,1.4
				c1,0.9,2,2.3,2.9,3.9c1.9,3.3,4.1,5.7,6.7,7.3c2.6,1.6,6.2,2.4,10.7,2.4c3.7,0,6.6-0.8,9-2.4s3.5-3.5,3.5-5.6
				c0-3.2-1.2-5.5-3.6-7c-2.4-1.5-6.4-2.9-12-4.2c-6.3-1.6-11.4-3.2-15.3-4.9c-3.9-1.7-7.1-4-9.5-6.8c-2.4-2.8-3.5-6.3-3.5-10.4
				c0-3.7,1.1-7.1,3.3-10.4c2.2-3.3,5.4-5.8,9.7-7.8c4.3-1.9,9.4-2.9,15.4-2.9c4.7,0,9,0.5,12.7,1.5c3.8,1,6.9,2.3,9.4,3.9
				c2.5,1.6,4.4,3.5,5.7,5.5c1.3,2,2,4,2,5.9c0,2.1-0.7,3.8-2.1,5.1c-1.4,1.3-3.4,2-6,2c-1.9,0-3.5-0.5-4.8-1.6
				c-1.3-1.1-2.8-2.7-4.5-4.8c-1.4-1.8-3-3.2-4.9-4.3c-1.9-1.1-4.4-1.6-7.6-1.6c-3.3,0-6,0.7-8.2,2.1c-2.2,1.4-3.3,3.2-3.3,5.2
				c0,1.9,0.8,3.5,2.4,4.7c1.6,1.2,3.8,2.2,6.5,3c2.7,0.8,6.5,1.8,11.2,2.9c5.7,1.4,10.3,3,13.9,4.9c3.6,1.9,6.3,4.2,8.2,6.8
				C120.3,84.7,121.2,87.6,121.2,91z"/>
		</g>
	</g>
</g>
<g>
	<path class="st5" d="M339.2,142h-121c-8.3,0-15-6.7-15-15V26c0-8.3,6.7-15,15-15h121c8.3,0,15,6.7,15,15v101
		C354.2,135.3,347.5,142,339.2,142z"/>
	<linearGradient id="SVGID_2_" gradientUnits="userSpaceOnUse" x1="212.8463" y1="76.4802" x2="344.4888" y2="76.4802">
		<stop  offset="0" style="stop-color:#322E7C"/>
		<stop  offset="1" style="stop-color:#272861"/>
	</linearGradient>
	<path class="st6" d="M337.5,131.5H219.8c-3.9,0-7-3.1-7-7v-96c0-3.9,3.1-7,7-7h117.6c3.9,0,7,3.1,7,7v96
		C344.5,128.3,341.4,131.5,337.5,131.5z"/>
	<linearGradient id="SVGID_3_" gradientUnits="userSpaceOnUse" x1="203.1675" y1="144.1552" x2="354.1675" y2="144.1552">
		<stop  offset="0" style="stop-color:#86B7E3"/>
		<stop  offset="0.5074" style="stop-color:#9BC5E9"/>
		<stop  offset="1" style="stop-color:#7CB2E0"/>
	</linearGradient>
	<path class="st7" d="M354.2,126.3v23.4c0,6.8-6.7,12.3-15,12.3h-121c-8.3,0-15-5.5-15-12.3v-23.4c0,6.8,6.7,12.3,15,12.3h121
		C347.4,138.6,354.2,133.1,354.2,126.3z"/>
	<g>
		<g>
			<g class="st8">
				<path class="st9" d="M237.2,46.7c4.3-0.8,10.2-1.4,18.3-1.4c8.7,0,15.2,1.8,19.3,5.3c3.9,3.2,6.4,8.4,6.4,14.5
					c0,6.2-1.9,11.4-5.6,14.9c-4.8,4.8-12.2,7-20.7,7c-2.2,0-4.3-0.1-5.8-0.4v24.7h-11.8V46.7z M249,77.2c1.5,0.4,3.4,0.5,5.8,0.5
					c8.9,0,14.4-4.4,14.4-12c0-7.3-5.1-11.2-13.3-11.2c-3.3,0-5.6,0.3-6.9,0.6V77.2z"/>
			</g>
			<g>
				<g>
					<path class="st10" d="M237.2,45.3c4.3-0.8,10.2-1.4,18.3-1.4c8.7,0,15.2,1.8,19.3,5.3c3.9,3.2,6.4,8.4,6.4,14.5
						c0,6.2-1.9,11.4-5.6,14.9c-4.8,4.8-12.2,7-20.7,7c-2.2,0-4.3-0.1-5.8-0.4v24.7h-11.8V45.3z M249,75.8c1.5,0.4,3.4,0.5,5.8,0.5
						c8.9,0,14.4-4.4,14.4-12c0-7.3-5.1-11.2-13.3-11.2c-3.3,0-5.6,0.3-6.9,0.6V75.8z"/>
				</g>
			</g>
		</g>
		<g>
			<g class="st8">
				<path class="st9" d="M284.9,100.3c2.7,1.7,7.9,3.4,12.1,3.4c5.2,0,7.6-2.1,7.6-5.2c0-3.2-1.9-4.9-7.8-6.9
					c-9.2-3.2-13.1-8.3-13-13.8c0-8.4,6.9-14.9,17.9-14.9c5.2,0,9.8,1.4,12.5,2.8l-2.3,8.4c-2-1.2-5.8-2.7-10-2.7
					c-4.3,0-6.6,2-6.6,5c0,3,2.2,4.5,8.3,6.6c8.5,3.1,12.5,7.5,12.6,14.5c0,8.5-6.7,14.9-19.2,14.9c-5.7,0-10.9-1.5-14.4-3.4
					L284.9,100.3z"/>
			</g>
			<g>
				<g>
					<path class="st10" d="M284.9,98.9c2.7,1.7,7.9,3.4,12.1,3.4c5.2,0,7.6-2.1,7.6-5.2c0-3.2-1.9-4.9-7.8-6.9
						c-9.2-3.2-13.1-8.3-13-13.8c0-8.4,6.9-14.9,17.9-14.9c5.2,0,9.8,1.4,12.5,2.8l-2.3,8.4c-2-1.2-5.8-2.7-10-2.7
						c-4.3,0-6.6,2-6.6,5c0,3,2.2,4.5,8.3,6.6c8.5,3.1,12.5,7.5,12.6,14.5c0,8.5-6.7,14.9-19.2,14.9c-5.7,0-10.9-1.5-14.4-3.4
						L284.9,98.9z"/>
				</g>
			</g>
		</g>
		<g>
			<g class="st8">
				<path class="st9" d="M241.2,44.7c4.3-0.8,10.2-1.4,18.3-1.4c8.7,0,15.2,1.8,19.3,5.3c3.9,3.2,6.4,8.4,6.4,14.5
					c0,6.2-1.9,11.4-5.6,14.9c-4.8,4.8-12.2,7-20.7,7c-2.2,0-4.3-0.1-5.8-0.4v24.7h-11.8V44.7z M253,75.2c1.5,0.4,3.4,0.5,5.8,0.5
					c8.9,0,14.4-4.4,14.4-12c0-7.3-5.1-11.2-13.3-11.2c-3.3,0-5.6,0.3-6.9,0.6V75.2z"/>
			</g>
			<g>
				<g>
					<path class="st11" d="M241.2,43.3c4.3-0.8,10.2-1.4,18.3-1.4c8.7,0,15.2,1.8,19.3,5.3c3.9,3.2,6.4,8.4,6.4,14.5
						c0,6.2-1.9,11.4-5.6,14.9c-4.8,4.8-12.2,7-20.7,7c-2.2,0-4.3-0.1-5.8-0.4v24.7h-11.8V43.3z M253,73.8c1.5,0.4,3.4,0.5,5.8,0.5
						c8.9,0,14.4-4.4,14.4-12c0-7.3-5.1-11.2-13.3-11.2c-3.3,0-5.6,0.3-6.9,0.6V73.8z"/>
				</g>
			</g>
		</g>
		<g>
			<g class="st8">
				<path class="st9" d="M288.9,98.3c2.7,1.7,7.9,3.4,12.1,3.4c5.2,0,7.6-2.1,7.6-5.2c0-3.2-1.9-4.9-7.8-6.9
					c-9.2-3.2-13.1-8.3-13-13.8c0-8.4,6.9-14.9,17.9-14.9c5.2,0,9.8,1.4,12.5,2.8l-2.3,8.4c-2-1.2-5.8-2.7-10-2.7
					c-4.3,0-6.6,2-6.6,5c0,3,2.2,4.5,8.3,6.6c8.5,3.1,12.5,7.5,12.6,14.5c0,8.5-6.7,14.9-19.2,14.9c-5.7,0-10.9-1.5-14.4-3.4
					L288.9,98.3z"/>
			</g>
			<g>
				<g>
					<path class="st11" d="M288.9,96.9c2.7,1.7,7.9,3.4,12.1,3.4c5.2,0,7.6-2.1,7.6-5.2c0-3.2-1.9-4.9-7.8-6.9
						c-9.2-3.2-13.1-8.3-13-13.8c0-8.4,6.9-14.9,17.9-14.9c5.2,0,9.8,1.4,12.5,2.8l-2.3,8.4c-2-1.2-5.8-2.7-10-2.7
						c-4.3,0-6.6,2-6.6,5c0,3,2.2,4.5,8.3,6.6c8.5,3.1,12.5,7.5,12.6,14.5c0,8.5-6.7,14.9-19.2,14.9c-5.7,0-10.9-1.5-14.4-3.4
						L288.9,96.9z"/>
				</g>
			</g>
		</g>
	</g>
</g>
<g>
	<path class="st12" d="M530.2,139.8h-121c-8.3,0-15-6.7-15-15v-101c0-8.3,6.7-15,15-15h121c8.3,0,15,6.7,15,15v101
		C545.2,133.1,538.5,139.8,530.2,139.8z"/>
	<linearGradient id="SVGID_4_" gradientUnits="userSpaceOnUse" x1="403.8514" y1="74.292" x2="535.494" y2="74.292">
		<stop  offset="0" style="stop-color:#5F4522"/>
		<stop  offset="1" style="stop-color:#373316"/>
	</linearGradient>
	<path class="st13" d="M528.5,129.3H410.9c-3.9,0-7-3.1-7-7v-96c0-3.9,3.1-7,7-7h117.6c3.9,0,7,3.1,7,7v96
		C535.5,126.2,532.4,129.3,528.5,129.3z"/>
	<linearGradient id="SVGID_5_" gradientUnits="userSpaceOnUse" x1="394.1727" y1="141.967" x2="545.1727" y2="141.967">
		<stop  offset="0" style="stop-color:#FCB541"/>
		<stop  offset="0.5123" style="stop-color:#FDC560"/>
		<stop  offset="1" style="stop-color:#F99C1C"/>
	</linearGradient>
	<path class="st14" d="M545.2,124.1v23.4c0,6.8-6.7,12.3-15,12.3h-121c-8.3,0-15-5.5-15-12.3v-23.4c0,6.8,6.7,12.3,15,12.3h121
		C538.5,136.4,545.2,130.9,545.2,124.1z"/>
	<g>
		<g>
			<g class="st8">
				<path class="st9" d="M444.2,91.6l-5.6,18.6h-12.3l21-65.5h15.2l21.3,65.5h-12.8L465,91.6H444.2z M462.9,82.5l-5.1-16.1
					c-1.3-4-2.3-8.5-3.3-12.2h-0.2c-1,3.8-1.9,8.4-3.1,12.2l-5.1,16.1H462.9z"/>
			</g>
			<g>
				<g>
					<path class="st15" d="M444.2,90.2l-5.6,18.6h-12.3l21-65.5h15.2l21.3,65.5h-12.8L465,90.2H444.2z M462.9,81.2l-5.1-16.1
						c-1.3-4-2.3-8.5-3.3-12.2h-0.2c-1,3.8-1.9,8.4-3.1,12.2l-5.1,16.1H462.9z"/>
				</g>
			</g>
		</g>
		<g>
			<g class="st8">
				<path class="st9" d="M501.1,49.6c0,3.6-2.6,6.4-6.8,6.4c-4,0-6.6-2.8-6.6-6.4c0-3.7,2.7-6.5,6.7-6.5
					C498.5,43.1,501,45.9,501.1,49.6z M488.4,110.1V62.8h12v47.3H488.4z"/>
			</g>
			<g>
				<g>
					<path class="st15" d="M501.1,48.3c0,3.6-2.6,6.4-6.8,6.4c-4,0-6.6-2.8-6.6-6.4c0-3.7,2.7-6.5,6.7-6.5
						C498.5,41.8,501,44.6,501.1,48.3z M488.4,108.8V61.5h12v47.3H488.4z"/>
				</g>
			</g>
		</g>
		<g>
			<g class="st8">
				<path class="st9" d="M448.2,89.6l-5.6,18.6h-12.3l21-65.5h15.2l21.3,65.5h-12.8L469,89.6H448.2z M466.9,80.5l-5.1-16.1
					c-1.3-4-2.3-8.5-3.3-12.2h-0.2c-1,3.8-1.9,8.4-3.1,12.2l-5.1,16.1H466.9z"/>
			</g>
			<g>
				<g>
					<path class="st16" d="M448.2,88.2l-5.6,18.6h-12.3l21-65.5h15.2l21.3,65.5h-12.8L469,88.2H448.2z M466.9,79.2l-5.1-16.1
						c-1.3-4-2.3-8.5-3.3-12.2h-0.2c-1,3.8-1.9,8.4-3.1,12.2l-5.1,16.1H466.9z"/>
				</g>
			</g>
		</g>
		<g>
			<g class="st8">
				<path class="st9" d="M505.1,47.6c0,3.6-2.6,6.4-6.8,6.4c-4,0-6.6-2.8-6.6-6.4c0-3.7,2.7-6.5,6.7-6.5
					C502.5,41.1,505,43.9,505.1,47.6z M492.4,108.1V60.8h12v47.3H492.4z"/>
			</g>
			<g>
				<g>
					<path class="st16" d="M505.1,46.3c0,3.6-2.6,6.4-6.8,6.4c-4,0-6.6-2.8-6.6-6.4c0-3.7,2.7-6.5,6.7-6.5
						C502.5,39.8,505,42.6,505.1,46.3z M492.4,106.8V59.5h12v47.3H492.4z"/>
				</g>
			</g>
		</g>
	</g>
</g>
<g>
	<path class="st17" d="M912.2,139.8h-121c-8.3,0-15-6.7-15-15v-101c0-8.3,6.7-15,15-15h121c8.3,0,15,6.7,15,15v101
		C927.2,133.1,920.5,139.8,912.2,139.8z"/>
	<linearGradient id="SVGID_6_" gradientUnits="userSpaceOnUse" x1="785.8616" y1="74.292" x2="917.5043" y2="74.292">
		<stop  offset="0" style="stop-color:#2F2965"/>
		<stop  offset="1" style="stop-color:#2D2B53"/>
	</linearGradient>
	<path class="st18" d="M910.5,129.3H792.9c-3.9,0-7-3.1-7-7v-96c0-3.9,3.1-7,7-7h117.6c3.9,0,7,3.1,7,7v96
		C917.5,126.2,914.4,129.3,910.5,129.3z"/>
	<linearGradient id="SVGID_7_" gradientUnits="userSpaceOnUse" x1="776.1829" y1="141.967" x2="927.1829" y2="141.967">
		<stop  offset="0" style="stop-color:#AA87BE"/>
		<stop  offset="0.5025" style="stop-color:#BC9CC9"/>
		<stop  offset="1" style="stop-color:#A27EB9"/>
	</linearGradient>
	<path class="st19" d="M927.2,124.1v23.4c0,6.8-6.7,12.3-15,12.3h-121c-8.3,0-15-5.5-15-12.3v-23.4c0,6.8,6.7,12.3,15,12.3h121
		C920.5,136.4,927.2,130.9,927.2,124.1z"/>
	<g>
		<g>
			<g class="st8">
				<path class="st9" d="M813.2,91.6l-5.8,19h-12.6l21.4-66.9h15.6l21.7,66.9h-13.1l-6.1-19H813.2z M832.4,82.3l-5.3-16.5
					c-1.3-4.1-2.4-8.6-3.4-12.5h-0.2c-1,3.9-2,8.5-3.2,12.5l-5.2,16.5H832.4z"/>
			</g>
			<g>
				<g>
					<path class="st20" d="M813.2,90.2l-5.8,19h-12.6l21.4-66.9h15.6l21.7,66.9h-13.1l-6.1-19H813.2z M832.4,81l-5.3-16.5
						c-1.3-4.1-2.4-8.6-3.4-12.5h-0.2c-1,3.9-2,8.5-3.2,12.5L815.2,81H832.4z"/>
				</g>
			</g>
		</g>
		<g>
			<g class="st8">
				<path class="st9" d="M869.8,89.8c0.3,8.7,7.1,12.5,14.9,12.5c5.7,0,9.7-0.8,13.4-2.2l1.8,8.4c-4.2,1.7-9.9,3.1-16.9,3.1
					c-15.7,0-24.9-9.7-24.9-24.5c0-13.4,8.1-26,23.6-26c15.8,0,20.8,12.9,20.8,23.5c0,2.3-0.2,4.1-0.4,5.2H869.8z M891,81.2
					c0.1-4.5-1.9-11.8-10-11.8c-7.5,0-10.7,6.8-11.2,11.8H891z"/>
			</g>
			<g>
				<g>
					<path class="st20" d="M869.8,88.4c0.3,8.7,7.1,12.5,14.9,12.5c5.7,0,9.7-0.8,13.4-2.2l1.8,8.4c-4.2,1.7-9.9,3.1-16.9,3.1
						c-15.7,0-24.9-9.7-24.9-24.5c0-13.4,8.1-26,23.6-26c15.8,0,20.8,12.9,20.8,23.5c0,2.3-0.2,4.1-0.4,5.2H869.8z M891,79.9
						c0.1-4.5-1.9-11.8-10-11.8c-7.5,0-10.7,6.8-11.2,11.8H891z"/>
				</g>
			</g>
		</g>
		<g class="st21">
			<g class="st8">
				<path class="st9" d="M816.2,88.6l-5.8,19h-12.6l21.4-66.9h15.6l21.7,66.9h-13.1l-6.1-19H816.2z M835.4,79.3l-5.3-16.5
					c-1.3-4.1-2.4-8.6-3.4-12.5h-0.2c-1,3.9-2,8.5-3.2,12.5l-5.2,16.5H835.4z"/>
			</g>
			<g>
				<g>
					<path class="st22" d="M816.2,87.2l-5.8,19h-12.6l21.4-66.9h15.6l21.7,66.9h-13.1l-6.1-19H816.2z M835.4,78l-5.3-16.5
						c-1.3-4.1-2.4-8.6-3.4-12.5h-0.2c-1,3.9-2,8.5-3.2,12.5L818.2,78H835.4z"/>
				</g>
			</g>
		</g>
		<g class="st21">
			<g class="st8">
				<path class="st9" d="M872.8,86.8c0.3,8.7,7.1,12.5,14.9,12.5c5.7,0,9.7-0.8,13.4-2.2l1.8,8.4c-4.2,1.7-9.9,3.1-16.9,3.1
					c-15.7,0-24.9-9.7-24.9-24.5c0-13.4,8.1-26,23.6-26c15.8,0,20.8,12.9,20.8,23.5c0,2.3-0.2,4.1-0.4,5.2H872.8z M894,78.2
					c0.1-4.5-1.9-11.8-10-11.8c-7.5,0-10.7,6.8-11.2,11.8H894z"/>
			</g>
			<g>
				<g>
					<path class="st22" d="M872.8,85.4c0.3,8.7,7.1,12.5,14.9,12.5c5.7,0,9.7-0.8,13.4-2.2l1.8,8.4c-4.2,1.7-9.9,3.1-16.9,3.1
						c-15.7,0-24.9-9.7-24.9-24.5c0-13.4,8.1-26,23.6-26c15.8,0,20.8,12.9,20.8,23.5c0,2.3-0.2,4.1-0.4,5.2H872.8z M894,76.9
						c0.1-4.5-1.9-11.8-10-11.8c-7.5,0-10.7,6.8-11.2,11.8H894z"/>
				</g>
			</g>
		</g>
	</g>
</g>
<g>
	<path class="st23" d="M721.2,139.8h-121c-8.3,0-15-6.7-15-15v-101c0-8.3,6.7-15,15-15h121c8.3,0,15,6.7,15,15v101
		C736.2,133.1,729.5,139.8,721.2,139.8z"/>
	<linearGradient id="SVGID_8_" gradientUnits="userSpaceOnUse" x1="594.8565" y1="74.292" x2="726.4991" y2="74.292">
		<stop  offset="0" style="stop-color:#53325D"/>
		<stop  offset="1" style="stop-color:#352A41"/>
	</linearGradient>
	<path class="st24" d="M719.5,129.3H601.9c-3.9,0-7-3.1-7-7v-96c0-3.9,3.1-7,7-7h117.6c3.9,0,7,3.1,7,7v96
		C726.5,126.2,723.4,129.3,719.5,129.3z"/>
	<linearGradient id="SVGID_9_" gradientUnits="userSpaceOnUse" x1="585.1778" y1="141.967" x2="736.1778" y2="141.967">
		<stop  offset="0" style="stop-color:#AA6EAE"/>
		<stop  offset="0.5468" style="stop-color:#BC8EC0"/>
		<stop  offset="1" style="stop-color:#9E59A4"/>
	</linearGradient>
	<path class="st25" d="M736.2,124.1v23.4c0,6.8-6.7,12.3-15,12.3h-121c-8.3,0-15-5.5-15-12.3v-23.4c0,6.8,6.7,12.3,15,12.3h121
		C729.5,136.4,736.2,130.9,736.2,124.1z"/>
	<g>
		<path class="st26" d="M621.7,43.5c4.4-0.8,10.4-1.4,18.7-1.4c8.9,0,15.5,1.9,19.7,5.5c4,3.3,6.6,8.5,6.6,14.8
			c0,6.4-2,11.6-5.8,15.2c-4.9,4.9-12.5,7.1-21.1,7.1c-2.3,0-4.4-0.1-6-0.4v25.2h-12.1V43.5z M633.8,74.7c1.5,0.4,3.5,0.5,6,0.5
			c9.1,0,14.7-4.5,14.7-12.3c0-7.4-5.2-11.4-13.6-11.4c-3.4,0-5.8,0.3-7,0.6V74.7z"/>
		<path class="st26" d="M675.5,76.7c0-6.5-0.1-11.2-0.4-15.6h10.6l0.4,9.2h0.4c2.4-6.8,8-10.3,13.2-10.3c1.2,0,1.9,0.1,2.9,0.3v11.5
			c-1-0.2-2.1-0.4-3.6-0.4c-5.9,0-9.8,3.8-10.9,9.2c-0.2,1.1-0.4,2.4-0.4,3.8v25h-12.2V76.7z"/>
		<path class="st27" d="M624.7,40.5c4.4-0.8,10.4-1.4,18.7-1.4c8.9,0,15.5,1.9,19.7,5.5c4,3.3,6.6,8.5,6.6,14.8
			c0,6.4-2,11.6-5.8,15.2c-4.9,4.9-12.5,7.1-21.1,7.1c-2.3,0-4.4-0.1-6-0.4v25.2h-12.1V40.5z M636.8,71.7c1.5,0.4,3.5,0.5,6,0.5
			c9.1,0,14.7-4.5,14.7-12.3c0-7.4-5.2-11.4-13.6-11.4c-3.4,0-5.8,0.3-7,0.6V71.7z"/>
		<path class="st27" d="M678.5,73.7c0-6.5-0.1-11.2-0.4-15.6h10.6l0.4,9.2h0.4c2.4-6.8,8-10.3,13.2-10.3c1.2,0,1.9,0.1,2.9,0.3v11.5
			c-1-0.2-2.1-0.4-3.6-0.4c-5.9,0-9.8,3.8-10.9,9.2c-0.2,1.1-0.4,2.4-0.4,3.8v25h-12.2V73.7z"/>
	</g>
</g>
</svg>
